<?xml version="1.0" standalone="no"?>
<!DOCTYPE svg PUBLIC "-//W3C//DTD SVG 20010904//EN"
 "http://www.w3.org/TR/2001/REC-SVG-20010904/DTD/svg10.dtd">
<svg version="1.0" xmlns="http://www.w3.org/2000/svg"
 width="640.000000pt" height="640.000000pt" viewBox="0 0 640.000000 640.000000"
 preserveAspectRatio="xMidYMid meet">
<metadata>
Created by potrace 1.11, written by Peter Selinger 2001-2013
</metadata>
<g transform="translate(0.000000,640.000000) scale(0.100000,-0.100000)"
fill="#000000" stroke="none">
<path d="M1186 5442 c-3 -3 -17 -6 -30 -8 -60 -6 -120 -49 -161 -114 -29 -46
-35 -89 -35 -250 1 -41 1 -83 1 -92 0 -10 0 -35 0 -55 0 -21 0 -49 -1 -63 -4
-109 -4 -140 0 -140 3 0 4 -28 3 -62 -7 -162 -8 -268 -3 -268 3 0 3 -29 0 -65
-3 -36 -3 -65 0 -65 4 0 3 -23 0 -51 -4 -29 -4 -68 0 -88 3 -20 3 -50 -1 -68
-3 -17 -3 -37 1 -43 4 -6 4 -29 0 -50 -4 -21 -4 -44 0 -50 4 -6 4 -26 1 -43
-4 -18 -4 -51 -1 -74 4 -24 4 -43 1 -43 -3 0 -6 -72 -6 -160 0 -88 2 -160 5
-160 3 0 3 -29 0 -65 -3 -36 -2 -65 3 -65 4 0 5 -4 2 -10 -3 -5 -6 -56 -5
-112 0 -57 1 -111 1 -120 0 -10 0 -35 0 -55 0 -34 -1 -54 -3 -88 -1 -25 13
-198 17 -205 3 -4 7 -25 11 -46 7 -46 59 -184 87 -234 11 -19 25 -44 31 -55 6
-11 25 -38 41 -60 194 -257 467 -393 793 -395 34 -1 67 2 72 5 6 3 10 2 10 -2
0 -5 29 -6 65 -3 36 3 65 3 65 0 0 -6 146 -3 173 4 9 2 17 1 17 -3 0 -3 29 -4
65 -1 36 3 65 3 65 0 0 -5 106 -4 268 3 34 1 62 0 62 -3 0 -3 28 -4 62 -2 97
4 159 3 168 -3 5 -3 11 -1 14 3 3 5 25 6 48 3 24 -4 57 -4 73 -1 17 3 50 3 75
0 25 -3 57 -3 70 0 14 4 36 4 50 0 14 -4 36 -4 50 0 14 3 43 3 65 0 22 -3 59
-3 83 0 24 4 45 3 48 -2 3 -5 9 -6 13 -4 8 5 41 7 171 7 149 1 187 5 300 33
161 41 333 146 450 273 72 78 100 115 100 130 0 7 4 13 9 13 14 0 89 162 111
241 20 69 33 141 34 182 0 9 4 17 7 17 4 0 4 13 -1 30 -5 16 -5 32 -1 34 4 3
41 5 82 5 41 1 90 1 109 2 19 1 42 1 50 0 46 -3 207 5 273 14 65 8 179 38 249
65 32 12 61 21 64 20 4 -1 10 2 13 7 3 4 29 19 56 32 178 83 356 240 486 426
65 93 153 285 174 378 2 12 12 51 20 87 30 125 25 412 -9 545 -2 6 -6 24 -10
40 -4 17 -11 39 -16 50 -5 11 -14 38 -21 60 -16 53 -119 257 -140 275 -3 3
-18 23 -34 45 -27 37 -80 97 -131 149 -82 84 -213 176 -333 235 -45 22 -81 37
-81 34 0 -3 -6 0 -14 6 -15 12 -100 41 -166 55 -114 26 -300 42 -410 36 -19
-1 -41 -2 -47 -1 -20 2 -44 2 -96 1 -26 -1 -50 1 -55 3 -4 3 -31 1 -59 -2 -29
-4 -53 -5 -53 -1 0 3 -29 3 -65 0 -36 -3 -65 -3 -65 0 0 5 -106 4 -268 -3 -34
-1 -62 0 -62 3 0 3 -28 4 -62 2 -35 -1 -78 -2 -95 -2 -18 0 -41 1 -50 1 -19
-1 -101 0 -118 1 -5 0 -52 -1 -103 -2 -51 -1 -95 0 -98 3 -3 2 -20 1 -38 -3
-19 -4 -39 -4 -46 0 -6 4 -29 4 -51 0 -22 -4 -41 -4 -44 0 -2 4 -25 4 -50 0
-25 -4 -45 -4 -45 -1 0 3 -28 5 -62 3 -35 -1 -85 -2 -113 -1 -59 1 -55 1 -128
-1 -32 -1 -60 0 -63 3 -3 2 -20 1 -38 -3 -19 -4 -39 -4 -46 0 -6 4 -29 4 -51
0 -22 -4 -41 -4 -44 0 -2 4 -25 4 -50 0 -25 -4 -45 -4 -45 -1 0 5 -52 5 -140
1 -14 -1 -68 -1 -120 -1 -52 1 -123 0 -158 -1 -34 -2 -62 -1 -62 2 0 3 -28 4
-62 2 -35 -1 -79 -2 -98 -2 -19 1 -46 0 -60 0 -14 -1 -32 -2 -40 -1 -93 3
-222 1 -230 -4 -6 -3 -10 -2 -10 2 0 5 -29 6 -65 3 -36 -3 -65 -3 -65 0 0 3
-72 5 -160 5 -88 0 -160 -3 -160 -6 0 -3 -20 -3 -45 1 -24 4 -49 4 -56 0 -6
-4 -26 -4 -45 0 -18 4 -35 5 -38 2z m3786 -647 c10 10 224 3 288 -10 48 -10
200 -75 200 -86 0 -5 6 -9 14 -9 8 0 51 -36 95 -79 64 -64 88 -96 120 -164 49
-102 62 -156 67 -267 4 -96 -13 -190 -47 -265 -12 -27 -23 -52 -24 -55 -10
-46 -191 -240 -224 -240 -5 0 -14 -7 -21 -15 -6 -8 -15 -14 -18 -13 -4 1 -29
-9 -57 -21 -64 -29 -152 -47 -239 -50 -39 -1 -73 -4 -78 -7 -4 -3 -8 -1 -8 4
0 4 -22 6 -50 2 -27 -4 -50 -4 -50 -1 0 3 -31 5 -69 4 l-69 -2 -4 44 c-2 25 1
45 5 45 5 0 6 4 3 8 -6 9 -7 45 -7 227 0 72 0 135 -1 140 0 6 1 21 2 35 0 14
1 41 0 60 0 19 1 63 2 98 2 34 1 62 -2 62 -3 0 -4 28 -2 62 1 35 2 119 1 188
0 134 0 133 2 183 0 17 0 37 -1 42 -1 6 -2 27 -1 47 l1 38 61 -1 c33 -1 63 1
66 5 3 3 13 1 23 -4 10 -5 19 -7 22 -5z"/>
<path d="M187 1603 c-3 -2 -29 -5 -58 -5 -48 -1 -58 -5 -86 -35 -87 -93 -32
-329 108 -463 60 -57 69 -64 109 -85 59 -31 110 -44 188 -50 42 -4 80 -8 83
-11 4 -2 10 0 13 4 3 5 25 6 48 2 24 -3 57 -3 75 1 17 3 37 3 43 -1 6 -4 29
-4 50 0 21 4 44 4 50 0 6 -4 26 -4 43 -1 18 4 48 4 68 1 20 -4 59 -4 88 0 28
3 51 4 51 0 0 -3 29 -3 65 0 36 3 65 3 65 0 0 -5 106 -4 268 3 34 1 62 0 62
-3 0 -3 28 -4 62 -2 35 1 79 2 98 2 19 -1 46 0 60 0 14 1 32 2 40 1 93 -3 222
-1 230 4 6 3 10 2 10 -2 0 -5 29 -6 65 -3 36 3 65 3 65 0 0 -3 72 -5 160 -5
88 0 160 3 160 6 0 3 19 3 43 -1 23 -3 56 -3 74 1 17 3 37 3 43 -1 6 -4 29 -4
50 0 21 4 44 4 50 0 6 -4 26 -4 43 -1 18 4 48 4 68 1 20 -4 59 -4 88 0 28 3
51 4 51 0 0 -3 29 -3 65 0 36 3 65 3 65 0 0 -5 106 -4 268 3 34 1 62 0 62 -3
0 -3 28 -4 62 -2 35 1 79 2 98 2 19 -1 46 0 60 0 14 1 32 2 40 1 93 -3 222 -1
230 4 6 3 10 2 10 -2 0 -5 29 -6 65 -3 36 3 65 3 65 0 0 -3 72 -5 160 -5 88 0
160 3 160 6 0 3 19 3 43 -1 23 -3 56 -3 74 1 17 3 37 3 43 -1 6 -4 29 -4 50 0
21 4 44 4 50 0 6 -4 26 -4 43 -1 18 4 48 4 68 1 20 -4 59 -4 88 0 28 3 51 4
51 0 0 -3 29 -3 65 0 36 3 65 3 65 0 0 -6 146 -3 173 4 9 2 17 1 17 -3 0 -3
29 -4 65 -1 36 3 65 3 65 0 0 -3 24 -3 53 0 28 3 78 3 110 0 32 -3 59 -4 61
-2 2 2 33 5 68 7 129 7 248 74 340 193 17 21 78 137 78 147 0 3 0 6 1 8 12 40
19 151 12 189 -3 14 -17 40 -33 58 -25 30 -34 33 -92 37 -100 6 -267 5 -278
-2 -6 -3 -10 -2 -10 2 0 5 -29 6 -65 3 -36 -3 -65 -3 -65 0 0 3 -72 5 -160 5
-88 0 -160 -3 -160 -6 0 -3 -19 -3 -42 1 -24 3 -57 3 -75 -1 -17 -3 -37 -3
-43 1 -6 4 -29 4 -50 0 -21 -4 -44 -4 -50 0 -6 4 -26 4 -43 1 -18 -4 -48 -4
-68 -1 -20 4 -59 4 -88 0 -28 -3 -51 -4 -51 0 0 3 -29 3 -65 0 -36 -3 -65 -3
-65 0 0 5 -106 4 -268 -3 -34 -1 -62 0 -62 3 0 3 -28 4 -62 2 -35 -1 -79 -2
-98 -2 -19 1 -46 0 -60 0 -14 -1 -31 -2 -37 -1 -7 0 -60 0 -118 0 -58 0 -113
0 -122 1 -10 0 -40 -1 -68 -1 -27 -1 -54 -1 -60 -1 -85 5 -325 5 -325 1 0 -3
-19 -3 -42 1 -24 3 -57 3 -75 -1 -17 -3 -37 -3 -43 1 -6 4 -29 4 -50 0 -21 -4
-44 -4 -50 0 -6 4 -26 4 -43 1 -18 -4 -48 -4 -68 -1 -20 4 -59 4 -88 0 -28 -3
-51 -4 -51 0 0 3 -29 3 -65 0 -36 -3 -65 -3 -65 0 0 5 -106 4 -268 -3 -34 -1
-62 0 -62 3 0 3 -28 4 -62 2 -35 -1 -79 -2 -98 -2 -19 1 -46 0 -60 0 -14 -1
-32 -2 -40 -1 -93 3 -222 1 -230 -4 -6 -3 -10 -2 -10 2 0 5 -29 6 -65 3 -36
-3 -65 -3 -65 0 0 3 -72 5 -160 5 -88 0 -160 -3 -160 -6 0 -3 -19 -3 -42 1
-24 3 -57 3 -75 -1 -17 -3 -37 -3 -43 1 -6 4 -29 4 -50 0 -21 -4 -44 -4 -50 0
-6 4 -26 4 -43 1 -18 -4 -48 -4 -68 -1 -20 4 -59 4 -88 0 -28 -3 -51 -4 -51 0
0 3 -29 3 -65 0 -36 -3 -65 -3 -65 0 0 5 -106 4 -268 -3 -34 -1 -62 0 -62 3 0
6 -130 3 -137 -3 -2 -3 -19 -1 -38 3 -19 4 -36 6 -38 3z"/>
</g>
</svg>
